<?xml version="1.0"?><svg width="640" height="480" xmlns="http://www.w3.org/2000/svg">
 <title>big_phone</title>
 <g>
  <title>Layer 1</title>
  <g id="Layer_x0020_1">
   <metadata fill="#ff0000" id="CorelCorpID_0Corel-Layer"/>
   <g id="_152222920">
    <path fill="#ff0000" id="_152222248" class="fil0" d="m265.421844,190.950348c-43.107986,23.053238 22.665192,137.271118 69.836609,112.044159c8.37677,13.439728 35.358734,56.730225 43.735657,70.16922c-19.902252,10.644318 -36.748627,17.354645 -59.823029,5.136292c-64.065979,-33.924042 -134.585648,-147.02388 -132.579269,-214.482758c0.696472,-23.430786 15.599808,-32.611816 35.093582,-43.036873c8.376907,13.439705 35.359558,56.730247 43.735657,70.16996l0.000793,0z"/>
    <path fill="#ff0000" id="_150519168" class="fil0" d="m283.504486,189.04715c-4.657684,2.491043 -10.65152,1.004196 -13.341278,-3.310623l-41.23143,-66.151436c-2.689697,-4.315376 -1.084534,-9.866913 3.573639,-12.358353l21.670258,-11.588936c4.658127,-2.491501 10.652939,-1.003281 13.342239,3.311531l41.231384,66.150993c2.68927,4.314453 1.083649,9.866455 -3.574066,12.357452l-21.670746,11.589371z"/>
    <path fill="#ff0000" id="_226148072" class="fil0" d="m396.145172,369.767181c-4.657684,2.490997 -10.651581,1.00412 -13.341248,-3.311127l-41.231476,-66.151398c-2.689697,-4.314941 -1.084412,-9.866913 3.573608,-12.357819l21.670319,-11.589508c4.658142,-2.490997 10.652954,-1.002838 13.342163,3.311554l41.231506,66.15097c2.689148,4.314911 1.083557,9.866913 -3.574097,12.357941l-21.670776,11.589386z"/>
   </g>
   <path fill="#ff0000" id="svg_1" class="fil1" d="m304.640564,25.999989l0.003387,0l0,0.049778c63.71283,0.000898 121.371429,23.900257 163.077728,62.533112c41.704529,38.631058 67.5047,92.036293 67.506653,151.050987l0.053589,0l0,0.00676l0,0.003143l-0.053589,0c-0.001038,59.01712 -25.802124,112.425354 -67.509186,151.057556c-41.705597,38.630646 -99.360657,62.529144 -163.071259,62.530975l0,0.049622l-0.007324,0l-0.003479,0l0,-0.049622c-63.712753,-0.000946 -121.370575,-23.90033 -163.076874,-62.533295c-41.704567,-38.63147 -67.504677,-92.036957 -67.506569,-151.05162l-0.05368,0l0,-0.00676l0,-0.003128l0.05368,0c0.001045,-59.016693 25.802002,-112.424614 67.509041,-151.056854c41.705048,-38.630619 99.359863,-62.529142 163.070557,-62.530876l0,-0.049778l0.007324,0zm0.003387,25.48204l0,0.049778l-0.003387,0l-0.007324,0l0,-0.049778c-56.029312,0.001289 -106.799652,21.079418 -143.582245,55.150524c-36.78466,34.072891 -59.541,81.103149 -59.541481,133.00499l0.053726,0l0,0.003128l0,0.006836l-0.053726,0c0.001488,51.899918 22.756821,98.927719 59.538994,132.999771c36.784164,34.073425 87.556717,55.152405 143.588577,55.152802l0,-0.049713l0.003448,0l0.007355,0l0,0.049713c56.029785,-0.001312 106.799561,-21.079376 143.583008,-55.150513c36.784637,-34.072876 59.540985,-81.103088 59.541504,-133.005707l-0.053772,0l0,-0.003189l0,-0.006699l0.053772,0c-0.001465,-51.899567 -22.756866,-98.927734 -59.539001,-132.999184c-36.784241,-34.073341 -87.556763,-55.152309 -143.589447,-55.15276z"/>
  </g>
 </g>
</svg>